<svg xmlns="http://www.w3.org/2000/svg" viewBox="0 0 445.71 365.76"><defs><style>.cls-1{fill:#fff;}.cls-2{fill:#e17726;stroke:#e17726;}.cls-10,.cls-11,.cls-2,.cls-3,.cls-4,.cls-5,.cls-6,.cls-7,.cls-8,.cls-9{stroke-linecap:round;stroke-linejoin:round;}.cls-3{fill:#e27625;stroke:#e27625;}.cls-4{fill:#d5bfb2;stroke:#d5bfb2;}.cls-5{fill:#233447;stroke:#233447;}.cls-6{fill:#cc6228;stroke:#cc6228;}.cls-7{fill:#e27525;stroke:#e27525;}.cls-8{fill:#f5841f;stroke:#f5841f;}.cls-9{fill:#c0ac9d;stroke:#c0ac9d;}.cls-10{fill:#161616;stroke:#161616;}.cls-11{fill:#763e1a;stroke:#763e1a;}</style></defs><g id="Layer_2" data-name="Layer 2"><g id="Layer_1-2" data-name="Layer 1"><path class="cls-1" d="M374,338c-3.17-2.11-6.71-3.64-10.06-5.49a42.16,42.16,0,0,1-6.35-3.83c-3.19-2.63-2.55-7.81.82-10.07,4.78-3.21,12.73-1.39,13.55,5.14a.27.27,0,0,0,.27.25h7.22a.29.29,0,0,0,.29-.29v0c-.39-4.51-2.1-8.26-5.28-10.66a16.94,16.94,0,0,0-10.26-3.52c-19.13,0-20.87,20.25-10.58,26.64,1.2.74,11.29,5.81,14.86,8a7.35,7.35,0,0,1,3.14,9.46c-1.41,2.94-5.07,4.91-8.73,4.72-4-.21-7.1-2.39-8.19-5.78a10.4,10.4,0,0,1-.28-2.29.29.29,0,0,0-.29-.27h-7.86a.31.31,0,0,0-.29.3c0,5.68,1.42,8.82,5.24,11.69a18.91,18.91,0,0,0,11.65,3.84c10.69,0,16.27-6.06,17.37-12.34S379.48,341.61,374,338Z"/><path class="cls-1" d="M33.47,310.42H26.22a.27.27,0,0,0-.27.2l-6.46,21.21a.28.28,0,0,1-.34.2.29.29,0,0,1-.2-.2L12.5,310.62a.29.29,0,0,0-.28-.2H.29a.29.29,0,0,0-.29.28v54.19a.29.29,0,0,0,.29.29H8.15a.29.29,0,0,0,.28-.28h0V323.72a.29.29,0,0,1,.31-.27.31.31,0,0,1,.25.19L15.49,345l.45,1.49a.29.29,0,0,0,.28.2h6a.29.29,0,0,0,.28-.2L23,345l6.5-21.35a.29.29,0,0,1,.56.08v41.17a.29.29,0,0,0,.27.29h7.87a.29.29,0,0,0,.29-.29h0V310.7a.29.29,0,0,0-.29-.28Z"/><path class="cls-1" d="M253.86,310.42a.29.29,0,0,0-.27.2l-6.45,21.21a.29.29,0,0,1-.55,0l-6.45-21.21a.29.29,0,0,0-.27-.2H227.94a.29.29,0,0,0-.29.28v54.19a.29.29,0,0,0,.29.29h7.86a.29.29,0,0,0,.28-.29V323.72a.29.29,0,0,1,.31-.27.31.31,0,0,1,.25.19l6.5,21.35.45,1.49a.29.29,0,0,0,.27.2h6a.27.27,0,0,0,.27-.2l.46-1.49,6.49-21.35a.29.29,0,0,1,.56.08v41.17a.29.29,0,0,0,.29.29h7.86a.29.29,0,0,0,.28-.29V310.7a.3.3,0,0,0-.28-.28Z"/><path class="cls-1" d="M152.71,310.42h-37a.29.29,0,0,0-.29.28v6.78a.29.29,0,0,0,.29.28H130v47.13a.29.29,0,0,0,.29.29h7.86a.29.29,0,0,0,.28-.29V317.76h14.24a.29.29,0,0,0,.29-.28V310.7A.29.29,0,0,0,152.71,310.42Z"/><path class="cls-1" d="M199,365.18h7.14a.28.28,0,0,0,.28-.28.22.22,0,0,0,0-.08l-14.7-54.37a.3.3,0,0,0-.28-.21H181.17a.3.3,0,0,0-.28.21l-14.75,54.37a.29.29,0,0,0,.21.35h7.21a.29.29,0,0,0,.27-.22l4.29-15.8a.28.28,0,0,1,.27-.21h15.78a.28.28,0,0,1,.27.21L198.71,365A.27.27,0,0,0,199,365.18Zm-18.74-23.93L186,320.08a.29.29,0,0,1,.55,0l5.74,21.17a.29.29,0,0,1-.19.35H180.54a.29.29,0,0,1-.29-.29A.17.17,0,0,1,180.26,341.25Z"/><path class="cls-1" d="M320.71,365.18h7.13a.29.29,0,0,0,.29-.29.17.17,0,0,0,0-.07l-14.75-54.37a.28.28,0,0,0-.28-.21H302.87a.3.3,0,0,0-.28.21l-14.74,54.37a.29.29,0,0,0,.21.35h7.2a.28.28,0,0,0,.27-.22l4.29-15.8a.3.3,0,0,1,.28-.21h15.77a.28.28,0,0,1,.27.21l4.29,15.8A.29.29,0,0,0,320.71,365.18ZM302,341.25l5.74-21.17a.29.29,0,0,1,.55,0L314,341.25a.29.29,0,0,1-.21.35H302.24a.28.28,0,0,1-.28-.28A.22.22,0,0,1,302,341.25Z"/><path class="cls-1" d="M70.17,357.17V340.35a.27.27,0,0,1,.26-.28h20.9a.29.29,0,0,0,.28-.29V333a.29.29,0,0,0-.28-.29H70.45a.29.29,0,0,1-.28-.28V318.05a.29.29,0,0,1,.27-.29H94.21a.29.29,0,0,0,.29-.28V310.7a.29.29,0,0,0-.29-.28H62a.29.29,0,0,0-.28.28v54.19a.29.29,0,0,0,.27.29H95.23a.29.29,0,0,0,.29-.29h0v-7.15a.29.29,0,0,0-.29-.29H70.45a.27.27,0,0,1-.28-.26Z"/><path class="cls-1" d="M445.63,364.69l-27.14-28.05a.28.28,0,0,1,0-.4h0L442.9,311a.28.28,0,0,0,0-.4.28.28,0,0,0-.2-.08h-10a.27.27,0,0,0-.21.09l-20.72,21.51a.29.29,0,0,1-.41,0,.27.27,0,0,1-.09-.21V310.7a.29.29,0,0,0-.28-.28h-7.86a.29.29,0,0,0-.29.28v54.19a.29.29,0,0,0,.29.29H411a.29.29,0,0,0,.28-.28h0V341a.29.29,0,0,1,.3-.28.27.27,0,0,1,.19.08l23.47,24.25a.25.25,0,0,0,.2.09h10a.29.29,0,0,0,.27-.31A.25.25,0,0,0,445.63,364.69Z"/><polygon class="cls-2" points="339.46 0.5 238.34 75.52 257.12 31.26 339.46 0.5"/><polygon class="cls-3" points="106.26 0.5 206.46 76.23 188.6 31.26 106.26 0.5"/><polygon class="cls-3" points="303.11 174.41 276.21 215.63 333.77 231.46 350.22 175.32 303.11 174.41"/><polygon class="cls-3" points="95.6 175.32 111.95 231.46 169.51 215.63 142.71 174.41 95.6 175.32"/><polygon class="cls-3" points="166.36 104.76 150.32 129.03 207.38 131.57 205.45 70.14 166.36 104.76"/><polygon class="cls-3" points="279.36 104.76 239.66 69.43 238.34 131.57 295.4 129.03 279.36 104.76"/><polygon class="cls-3" points="169.51 215.63 203.93 198.87 174.28 175.73 169.51 215.63"/><polygon class="cls-3" points="241.79 198.87 276.21 215.63 271.44 175.73 241.79 198.87"/><polygon class="cls-4" points="276.21 215.63 241.79 198.87 244.53 221.31 244.23 230.75 276.21 215.63"/><polygon class="cls-4" points="169.51 215.63 201.49 230.75 201.29 221.31 203.93 198.87 169.51 215.63"/><polygon class="cls-5" points="202.1 160.9 173.47 152.48 193.67 143.24 202.1 160.9"/><polygon class="cls-5" points="243.62 160.9 252.05 143.24 272.35 152.48 243.62 160.9"/><polygon class="cls-6" points="169.51 215.63 174.48 174.41 142.71 175.32 169.51 215.63"/><polygon class="cls-6" points="271.24 174.41 276.21 215.63 303.11 175.32 271.24 174.41"/><polygon class="cls-6" points="295.4 129.03 238.34 131.57 243.62 160.9 252.05 143.24 272.35 152.48 295.4 129.03"/><polygon class="cls-6" points="173.47 152.48 193.67 143.24 202.1 160.9 207.38 131.57 150.32 129.03 173.47 152.48"/><polygon class="cls-7" points="150.32 129.03 174.28 175.73 173.47 152.48 150.32 129.03"/><polygon class="cls-7" points="272.35 152.48 271.44 175.73 295.4 129.03 272.35 152.48"/><polygon class="cls-7" points="207.38 131.57 202.1 160.9 208.8 195.52 210.22 149.94 207.38 131.57"/><polygon class="cls-7" points="238.34 131.57 235.6 149.84 236.92 195.52 243.62 160.9 238.34 131.57"/><polygon class="cls-8" points="243.62 160.9 236.92 195.52 241.79 198.87 271.44 175.73 272.35 152.48 243.62 160.9"/><polygon class="cls-8" points="173.47 152.48 174.28 175.73 203.93 198.87 208.8 195.52 202.1 160.9 173.47 152.48"/><polygon class="cls-9" points="244.23 230.75 244.53 221.31 242 219.08 203.72 219.08 201.29 221.31 201.49 230.75 169.51 215.63 180.68 224.76 203.42 240.5 242.3 240.5 265.04 224.76 276.21 215.63 244.23 230.75"/><polygon class="cls-10" points="241.79 198.87 236.92 195.52 208.8 195.52 203.93 198.87 201.29 221.31 203.72 219.08 242 219.08 244.53 221.31 241.79 198.87"/><polygon class="cls-11" points="343.72 80.4 352.25 38.98 339.46 0.5 241.79 72.99 279.36 104.76 332.45 120.3 344.13 106.59 339.05 102.94 347.17 95.52 340.98 90.65 349.1 84.46 343.72 80.4"/><polygon class="cls-11" points="93.47 38.98 102.1 80.4 96.62 84.46 104.74 90.65 98.55 95.52 106.67 102.94 101.59 106.59 113.27 120.3 166.36 104.76 203.93 72.99 106.26 0.5 93.47 38.98"/><polygon class="cls-8" points="332.45 120.3 279.36 104.76 295.4 129.03 271.44 175.73 303.11 175.32 350.22 175.32 332.45 120.3"/><polygon class="cls-8" points="166.36 104.76 113.27 120.3 95.6 175.32 142.71 175.32 174.28 175.73 150.32 129.03 166.36 104.76"/><polygon class="cls-8" points="238.34 131.57 241.79 72.99 257.12 31.26 188.6 31.26 203.93 72.99 207.38 131.57 208.7 150.04 208.8 195.52 236.92 195.52 237.02 150.04 238.34 131.57"/></g></g></svg>